# xmcd CD database file
#
# Track frame offsets:
#	150
#	14072
#	25302
#	38930
#	52455
#	67322
#	80260
#	95000
#	108950
#	123267
#	134252
#	148620
#	161657
#	169850
#
# Disc length: 2400 seconds
#
# Revision: 0
# Processed by: cddbd v1.5.2PL0 Copyright (c) Steve Scherf et al.
# Submitted via: CDex 1.51
#
DISCID=ce095e0e
DTITLE=Patti Page - Very the best Series
DYEAR=2006
DGENRE=Jazz
TTITLE0=Tennessee Waltz
TTITLE1=The Doggie In The Window
TTITLE2=Mockin' Bird Hill
TTITLE3=Changing Partners
TTITLE4=I Went To Your Wedding
TTITLE5=You Belong To Me
TTITLE6=All My Love
TTITLE7=Stars Fell On Alabama
TTITLE8=Red Sails In The Sunset
TTITLE9=Melody Of Love
TTITLE10=I Only Have Eyes For You
TTITLE11=Allegheny Moon
TTITLE12=Memories Of You
TTITLE13=Tenderly
EXTD=YEAR: 2006
EXTT0=
EXTT1=
EXTT2=
EXTT3=
EXTT4=
EXTT5=
EXTT6=
EXTT7=
EXTT8=
EXTT9=
EXTT10=
EXTT11=
EXTT12=
EXTT13=
PLAYORDER=
